<svg xmlns="http://www.w3.org/2000/svg" viewBox="0 0 1040 240" role="img" aria-labelledby="title desc">
  <title id="title">Pluckten Distribuidora Med</title>
  <desc id="desc">Marca Pluckten Distribuidora Med com cruz medica e simbolo de movimento.</desc>
  <defs>
    <linearGradient id="markGradient" x1="37" y1="183" x2="202" y2="32" gradientUnits="userSpaceOnUse">
      <stop stop-color="#10c7dc"/>
      <stop offset="0.48" stop-color="#4fd5ca"/>
      <stop offset="1" stop-color="#b4ed85"/>
    </linearGradient>
    <linearGradient id="wordGradient" x1="274" y1="64" x2="860" y2="136" gradientUnits="userSpaceOnUse">
      <stop stop-color="#4ccdec"/>
      <stop offset="0.55" stop-color="#78d6f6"/>
      <stop offset="1" stop-color="#9ee6ff"/>
    </linearGradient>
    <linearGradient id="subGradient" x1="298" y1="176" x2="992" y2="176" gradientUnits="userSpaceOnUse">
      <stop stop-color="#69d888"/>
      <stop offset="1" stop-color="#a9ea8b"/>
    </linearGradient>
    <filter id="softShadow" x="-10%" y="-20%" width="120%" height="150%">
      <feDropShadow dx="0" dy="8" stdDeviation="8" flood-color="#136f86" flood-opacity="0.14"/>
    </filter>
  </defs>

  <g filter="url(#softShadow)">
    <path fill="url(#markGradient)" d="M111 43c0-11 9-20 20-20h53c12 0 21 10 19 22l-8 54h45c12 0 21 10 19 22l-7 48c-1 10-10 18-20 18h-45l-8 48c-2 10-10 17-20 17h-54c-12 0-21-11-19-23l8-48H50c-12 0-21-10-19-22l8-48c1-10 10-18 20-18h44l8-50Z"/>
    <path fill="#061d2b" fill-opacity=".9" d="M38 161c43-8 78-21 120-42 28-13 66-25 105-21-54 8-85 26-123 44-34 17-65 24-102 19Z"/>
    <path fill="none" stroke="#0cc9df" stroke-linecap="round" stroke-width="16" d="M22 171c52 18 107 6 167-28 34-19 65-31 96-28"/>
    <path fill="none" stroke="#a9ec8a" stroke-linecap="round" stroke-width="10" d="M96 181c38-5 72-18 111-40 25-14 55-22 81-19"/>
  </g>

  <text x="316" y="132"
    fill="url(#wordGradient)"
    font-family="Montserrat, Inter, Arial, sans-serif"
    font-size="94"
    font-style="italic"
    font-weight="800"
    letter-spacing="-3">
    Pluckten
  </text>
  <text x="322" y="198"
    fill="url(#subGradient)"
    font-family="Trebuchet MS, Segoe UI, Arial, sans-serif"
    font-size="42"
    font-weight="700"
    letter-spacing="4">
    Distribuidora Med
  </text>
</svg>
